<svg xmlns="http://www.w3.org/2000/svg" version="1.1" xmlns:xlink="http://www.w3.org/1999/xlink" xmlns:svgjs="http://svgjs.dev/svgjs" width="2000" height="565" viewBox="0 0 2000 565"><g transform="matrix(1,0,0,1,-1.2112696095522324,0.515925888721938)"><svg viewBox="0 0 396 112" data-background-color="#000000" preserveAspectRatio="xMidYMid meet" height="565" width="2000" xmlns="http://www.w3.org/2000/svg" xmlns:xlink="http://www.w3.org/1999/xlink"><defs></defs><g id="tight-bounds" transform="matrix(1,0,0,1,0.24008861730862918,-0.10227203457850464)"><svg viewBox="0 0 395.52 112.20446495844081" height="112.20446495844081" width="395.52"><g><svg viewBox="0 0 395.52 112.20446495844081" height="112.20446495844081" width="395.52"><g><svg viewBox="0 0 395.52 112.20446495844081" height="112.20446495844081" width="395.52"><g><svg viewBox="0 0 395.52 112.20446495844081" height="112.20446495844081" width="395.52"><g><svg viewBox="0 0 395.52 112.20446495844081" height="112.20446495844081" width="395.52"><path d="M394.594 24.066C392.735 12.419 387.435 9.181 387.435 9.181 371.165-2.815 350.86-0.229 332.619 1.494 300.414 1.564 268.339 4.126 236.208 5.501 168.767 5.71 100.749 2.263 33.643 10.765 27.339 13.374-6.54 11.278 1.121 25.556 3.129 31.496 10.456 38.088 10.232 43.539 11.236 44.494 12.631 42.305 13.226 43.679 15.309 47.383 18.711 45.636 21.501 47.825 17.614 53.672 20.403 58.54 23.062 63.641 18.377 64.969 12.371 64.34 9.675 68.743 9.396 71.934 7.89 71.328 6.235 71.189 5.026 71.095 2.59 71.445 2.999 72.446 4.394 75.871-1.594 77.851 2.162 81.205-0.422 84.839 3.948 87.983 3.353 91.92 3.278 92.712 3.687 93.387 4.338 93.574 7.22 94.575 3.018 96.532 3.464 98.652 33.029 113.14 65.104 103.124 95.394 109.786 103.259 105.127 97.346 111.44 100.489 110.462 102.943 109.32 104.728 114.049 107.499 111.37 107.927 110.601 107.276 108.784 108.8 109.134 109.6 109.32 110.307 109.274 110.418 108.202 110.586 106.595 109.117 107.596 108.726 106.758 112.947 102.518 111.906 112.605 115.866 112.185 115.68 110.951 114.528 109.18 116.889 109.413 119.232 107.643 119.306 106.176 121.389 110.159 121.463 111.021 121.835 111.626 122.43 112.046 128.938 107.713 135.409 113.583 142.233 111.626 146.417 109.483 150.433 112.791 154.672 111.976 156.16 111.323 157.666 110.159 159.098 112.115 176.632 112.535 195.319 110.788 211.943 112.185 256.364 109.576 303.835 113.257 350.674 109.809 361.719 108.482 373.192 106.595 383.958 105.081 383.958 105.081 392.679 100.934 392.679 82.3S394.538 65.994 394.817 51.156C395.096 36.318 396.398 35.712 394.538 24.066Z" opacity="1" fill="#ffffff" data-fill-palette-color="tertiary"></path><g transform="matrix(1,0,0,1,55.76832,26.230666666666668)"><svg width="283.98335999999995" viewBox="-8.600000381469727 -29.649999618530273 174.44000244140625 36.70000076293945" height="59.74313162510748" data-palette-color="#000000"><path d="M40.75-21.65L40.75-21.65Q39.55-21.65 37.55-23.4L37.55-23.4Q37.6-22.65 37.6-21.85L37.6-21.85Q37.6-17.85 36-12.1 34.4-6.35 31.18-1.5 27.95 3.35 24.6 3.35L24.6 3.35Q21.8 3.35 19.78 1.15 17.75-1.05 16.7-4.6L16.7-4.6Q14.8-11.35 14.8-19.15L14.8-19.15Q11.35-10.1 8.2-4.25L8.2-4.25Q2.9 5.15-2 6.65L-2 6.65Q-3.25 7.05-4.25 7.05-5.25 7.05-6 6.85L-6 6.85Q-8.05 6.15-8.55 4.05L-8.55 4.05Q-8.6 3.8-8.6 3.6-8.6 3.4-8.55 3.1-8.5 2.8-8.25 2.93-8 3.05-7.75 3.85L-7.75 3.85Q-7.4 5.2-6 5.55L-6 5.55Q-5.15 5.8-4.35 5.8-3.55 5.8-2.8 5.55L-2.8 5.55Q2 4.05 6.7-4.5L6.7-4.5Q9.95-10.75 13.3-22.1L13.3-22.1Q10.55-19.6 6.8-19.35L6.8-19.35Q6.3-19.3 6.28-19.7 6.25-20.1 6.85-20.2L6.85-20.2Q9-20.4 11.3-22.45 13.6-24.5 14.75-27.15L14.75-27.15Q14.95-27.8 16.5-27.78 18.05-27.75 18-27.15L18-27.15Q17.8-26.6 17.55-24.5 17.3-22.4 17.3-20.35L17.3-20.35Q17.3-11.55 20.05-3.8L20.05-3.8Q22 1.65 25 1.65 28 1.65 30.6-3.6 33.2-8.85 34.18-14 35.15-19.15 35.15-21.23 35.15-23.3 34.95-24.33 34.75-25.35 33.6-28.7L33.6-28.7Q33.55-28.85 33.95-29.23 34.35-29.6 34.55-29.65L34.55-29.65Q35.5-29.65 36.33-28.5 37.15-27.35 38-25.8L38-25.8Q39.45-23 40.7-23L40.7-23 41.3-23.15Q41.75-23.15 41.85-22.65L41.85-22.65Q41.85-22.25 41.5-21.98 41.15-21.7 40.75-21.65ZM43.75 0.55L43.75 0.55Q42.95 0.55 42.02 0.08 41.1-0.4 40.45-1.28 39.8-2.15 39.8-3.15 39.8-4.15 40.25-5.05L40.25-5.05Q41.25-7.15 43.47-9.13 45.7-11.1 48.1-12.5 50.5-13.9 51.9-14.25 53.3-14.6 54.62-14.6 55.95-14.6 56.9-13.93 57.85-13.25 57.85-12.5L57.85-12.5Q57.85-12.25 57.8-12.2 57.75-12.15 57.55-12.25L57.55-12.25Q56.95-13.2 55.07-13.2 53.2-13.2 50.82-11.98 48.45-10.75 46.35-8.9L46.35-8.9Q44.6-7.25 43.27-5.18 41.95-3.1 41.95-2.15L41.95-2.15Q41.95-0.3 43-0.3 44.05-0.3 46.2-2L46.2-2Q49.75-5 51.05-6.4L51.05-6.4Q55.65-11.35 56-11.35L56-11.35Q56.6-11.35 57.45-11 58.3-10.65 58-10.15L58-10.15Q55.45-6.55 55-2.9L55-2.9Q54.95-2.45 54.95-1.75 54.95-1.05 55.35-0.6L55.35-0.6Q56.1 0.2 57.4-0.5 58.7-1.2 61.02-3.3 63.35-5.4 64.75-7.4L64.75-7.4Q64.95-7.65 65.2-7.53 65.45-7.4 65.45-7.3L65.45-7.3Q65.45-6.55 63.07-4.03 60.7-1.5 59.45-0.6L59.45-0.6Q57.1 1.15 55.1 1.15L55.1 1.15Q53.2 1.15 52.55-0.75L52.55-0.75Q52.4-1.35 52.4-2.1L52.4-2.1Q52.4-4.35 53.35-6.85L53.35-6.85Q53.15-6.75 51.5-4.85 49.85-2.95 47.67-1.2 45.5 0.55 43.75 0.55ZM64.59 0.5L64.59 0.5Q63.95 1.25 64.32 1.7 64.7 2.15 65.17 2.15 65.65 2.15 66.15 2L66.15 2Q68.3 1.35 70.32-0.58 72.34-2.5 72.34-4.5L72.34-4.5Q72.34-5.6 69.9-6.9L69.9-6.9Q68.75-7.5 68.59-7.6L68.59-7.6Q67.25-8.5 66.9-9.4L66.9-9.4Q66.2-8.2 64.65-5.95L64.65-5.95Q64.3-5.55 64-5.78 63.7-6 63.95-6.4L63.95-6.4Q66-9.2 66.65-11.1L66.65-11.1Q67-13.85 70.65-16.05 74.3-18.25 77.3-18.25L77.3-18.25Q79.2-18.25 79.97-17.57 80.75-16.9 80.75-16.25 80.75-15.6 80.37-14.75 80-13.9 78.84-13.15L78.84-13.15Q78.55-12.95 78.34-13.25L78.34-13.25Q78.25-13.55 78.77-14.08 79.3-14.6 79.45-15.5 79.59-16.4 78.65-16.6L78.65-16.6Q78.5-16.6 78.34-16.6L78.34-16.6Q76.4-16.6 73.47-15.15 70.55-13.7 68.9-11.4L68.9-11.4Q68.25-10.55 68.25-9.68 68.25-8.8 69.45-8.1L69.45-8.1Q69.95-7.8 71.15-7.15 72.34-6.5 72.84-6.2 73.34-5.9 74.05-5.25 74.75-4.6 74.8-4.05L74.8-4.05Q75.05-2.55 73.4-0.75L73.4-0.75Q71.05 1.85 66.4 2.9L66.4 2.9Q65.34 3.15 64.27 3.15 63.2 3.15 62.8 2.35L62.8 2.35Q62.65 2.15 62.65 1.73 62.65 1.3 63.45 0.35L63.45 0.35Q64.2-0.4 65.84-1.1L65.84-1.1Q66-1.15 66.09-1.05 66.2-0.95 66.15-0.8 66.09-0.65 65.62-0.45 65.15-0.25 64.59 0.5ZM96.04-29.25L96.04-29.25Q96.94-29.6 97.59-29.6L97.59-29.6Q99.79-29.6 100.49-28.4L100.49-28.4Q100.89-27.8 100.89-27.35L100.89-27.35Q100.89-23.95 95.19-18.8L95.19-18.8Q90.14-14.35 85.89-11.15L85.89-11.15Q84.49-8 82.99-3.4L82.99-3.4Q84.79-5.6 87.54-8.5L87.54-8.5Q93.09-14.25 95.29-14.25L95.29-14.25Q96.39-14.25 96.44-13.15L96.44-13.15Q96.54-12 95.97-10.95 95.39-9.9 94.89-9L94.89-9Q92.54-5.1 92.54-2.05L92.54-2.05Q92.54-1.05 92.94-0.6L92.94-0.6Q93.64 0.2 94.94-0.5 96.24-1.2 98.57-3.3 100.89-5.4 102.34-7.4L102.34-7.4Q102.59-7.65 102.82-7.53 103.04-7.4 103.04-7.28 103.04-7.15 102.94-7L102.94-7Q102.19-5.65 100.24-3.58 98.29-1.5 97.09-0.6L97.09-0.6Q94.79 1.15 92.69 1.15L92.69 1.15Q90.79 1.15 90.14-0.75L90.14-0.75Q89.99-1.2 89.99-1.83 89.99-2.45 90.09-3.15L90.09-3.15Q90.34-5.25 92.74-9.7L92.74-9.7Q93.24-10.6 93.24-10.98 93.24-11.35 92.84-11.35L92.84-11.35Q92.04-11.35 89.74-9.35L89.74-9.35Q88.19-7.9 85.17-3.88 82.14 0.15 81.74 0.4L81.74 0.4Q79.94 1.3 79.52 1.3 79.09 1.3 79.04 1.18 78.99 1.05 79.09 0.85 79.19 0.65 79.89-1.35L79.89-1.35Q82.24-8 83.09-10.15L83.09-10.15Q81.44-8.05 78.99-5.4L78.99-5.4Q78.59-5 78.59-5.58 78.59-6.15 79.04-6.75 79.49-7.35 80.92-9.08 82.34-10.8 82.94-11.65L82.94-11.65Q82.49-11.9 82.47-12.35 82.44-12.8 82.77-12.98 83.09-13.15 83.84-12.85L83.84-12.85Q84.34-13.55 84.74-14.4L84.74-14.4Q90.69-27.2 96.04-29.25ZM98.84-25.5L98.84-25.5Q99.49-26.7 99.49-27.53 99.49-28.35 98.77-28.35 98.04-28.35 96.84-27.45L96.84-27.45Q91.34-23.25 86.89-13.4L86.89-13.4Q90.14-15.5 93.69-19 97.24-22.5 98.84-25.5ZM113.24-14.55L113.24-14.55Q115.94-14.55 115.94-11.95L115.94-11.95Q115.94-10.6 115.19-9.75L115.19-9.75Q113.94-7.9 111.14-6.53 108.34-5.15 106.39-5L106.39-5Q105.69-4.95 105.64-5.4L105.64-5.4Q105.59-5.6 105.77-5.65 105.94-5.7 106.04-5.7L106.04-5.7Q107.19-5.8 108.99-6.8L108.99-6.8Q112.34-8.6 113.89-10.5L113.89-10.5Q114.54-11.4 114.54-12.23 114.54-13.05 113.74-13.05L113.74-13.05Q113.09-13.05 111.99-12.5L111.99-12.5Q109.64-11.4 107.04-8.68 104.44-5.95 103.64-3.35L103.64-3.35Q103.39-2.55 103.39-1.78 103.39-1 104.04-0.3 104.69 0.4 106.04 0.4L106.04 0.4Q107.54 0.4 109.49-0.4L109.49-0.4Q115.14-2.7 118.19-7.35L118.19-7.35Q118.49-7.75 118.74-7.5L118.74-7.5Q118.94-7.4 118.94-7.25 118.94-7.1 118.79-6.9L118.79-6.9Q117.29-4.4 114.99-2.45L114.99-2.45Q110.54 1.35 106.34 1.35L106.34 1.35Q102.74 1.35 101.29-0.8L101.29-0.8Q100.74-1.65 100.74-2.85 100.74-4.05 101.39-5.7L101.39-5.7Q102.64-8.55 106.74-11.55 110.84-14.55 113.24-14.55ZM129.19-14.55L129.19-14.55Q131.89-14.55 131.89-11.95L131.89-11.95Q131.89-10.6 131.14-9.75L131.14-9.75Q129.89-7.9 127.09-6.53 124.29-5.15 122.34-5L122.34-5Q121.64-4.95 121.59-5.4L121.59-5.4Q121.54-5.6 121.71-5.65 121.89-5.7 121.99-5.7L121.99-5.7Q123.14-5.8 124.94-6.8L124.94-6.8Q128.29-8.6 129.84-10.5L129.84-10.5Q130.49-11.4 130.49-12.23 130.49-13.05 129.69-13.05L129.69-13.05Q129.04-13.05 127.94-12.5L127.94-12.5Q125.59-11.4 122.99-8.68 120.39-5.95 119.59-3.35L119.59-3.35Q119.34-2.55 119.34-1.78 119.34-1 119.99-0.3 120.64 0.4 121.99 0.4L121.99 0.4Q123.49 0.4 125.44-0.4L125.44-0.4Q131.09-2.7 134.14-7.35L134.14-7.35Q134.44-7.75 134.69-7.5L134.69-7.5Q134.89-7.4 134.89-7.25 134.89-7.1 134.74-6.9L134.74-6.9Q133.24-4.4 130.94-2.45L130.94-2.45Q126.49 1.35 122.29 1.35L122.29 1.35Q118.69 1.35 117.24-0.8L117.24-0.8Q116.69-1.65 116.69-2.85 116.69-4.05 117.34-5.7L117.34-5.7Q118.59-8.55 122.69-11.55 126.79-14.55 129.19-14.55ZM135.81-9.13Q138.03-11.1 140.44-12.5 142.84-13.9 144.24-14.25 145.64-14.6 146.99-14.6 148.34-14.6 149.53-13.7L149.53-13.7Q156.39-29.6 162.64-29.6L162.64-29.6Q164.74-29.6 165.49-28.4L165.49-28.4Q165.84-27.8 165.84-27.35L165.84-27.35Q165.84-26.1 164.76-24.18 163.69-22.25 161.44-19.95 159.19-17.65 154.99-14.28 150.79-10.9 150.34-10.5L150.34-10.5Q148.74-6.8 147.84-3.35 146.94 0.1 146.94 1.8 146.94 3.5 147.53 4.5L147.53 4.5Q147.84 5.15 148.44 5.28 149.03 5.4 149.46 5.13 149.89 4.85 150.11 4.65 150.34 4.45 150.66 4.28 150.99 4.1 151.14 4.2 151.29 4.3 151.09 4.75L151.09 4.75Q150.69 5.25 150.34 5.6L150.34 5.6Q149.53 6.15 148.46 6.15 147.39 6.15 147.03 6.1L147.03 6.1Q144.64 5.7 144.64 2.6L144.64 2.6Q144.64-0.4 145.44-2.95L145.44-2.95Q146.53-6.45 147.44-8.75L147.44-8.75Q139.44 0.55 136.09 0.55L136.09 0.55Q135.28 0.55 134.36 0.08 133.44-0.4 132.78-1.28 132.14-2.15 132.14-3.15 132.14-4.15 132.59-5.05L132.59-5.05Q133.59-7.15 135.81-9.13ZM148.44-11.2L149.14-12.9Q148.53-13.2 147.03-13.2 145.53-13.2 143.16-11.98 140.78-10.75 138.69-8.9L138.69-8.9Q136.94-7.25 135.61-5.18 134.28-3.1 134.28-2.15L134.28-2.15Q134.28-0.3 135.34-0.3 136.39-0.3 138.53-2L138.53-2Q144.09-6.55 148.44-11.2L148.44-11.2ZM163.79-25.5L163.79-25.5Q164.44-26.7 164.44-27.53 164.44-28.35 163.71-28.35 162.99-28.35 161.79-27.45L161.79-27.45Q156.29-23.25 151.84-13.4L151.84-13.4Q155.09-15.5 158.64-19 162.19-22.5 163.79-25.5Z" opacity="1" transform="matrix(1,0,0,1,0,0)" fill="#000000" class="undefined-text-0" data-fill-palette-color="quaternary" id="text-0"></path></svg></g></svg></g></svg></g></svg></g><g></g></svg></g></svg><rect width="395.52" height="112.20446495844081" fill="none" stroke="none" visibility="hidden"></rect></g></svg></g></svg>